<svg width="80" height="47" viewBox="0 0 80 47" fill="none" xmlns="http://www.w3.org/2000/svg">
<path d="M26.6663 40.0007L53.3329 40.0007V46.6674L26.6663 46.6674V40.0007Z" fill="#00EAFF"/>
<path d="M26.6663 0L53.3329 0V6.66667L26.6663 6.66667V0Z" fill="#00EAFF"/>
<path d="M6.66675 26.6671H13.3334V33.3338H6.66675L6.66675 26.6671Z" fill="#00EAFF"/>
<path d="M36.6664 20.0004H43.333V26.667H36.6664V20.0004Z" fill="#00EAFF"/>
<path d="M66.6661 13.3336L73.3328 13.3336V20.0003H66.6661V13.3336Z" fill="#00EAFF"/>
<path d="M73.3329 20.0004H79.9996V26.667H73.3329V20.0004Z" fill="#00EAFF"/>
<path d="M66.6661 26.6671H73.3328V33.3338H66.6661V26.6671Z" fill="#00EAFF"/>
<path d="M6.66675 13.3336L13.3334 13.3336V20.0003H6.66675L6.66675 13.3336Z" fill="#00EAFF"/>
<path d="M0 20.0004H6.66667L6.66667 26.667H0L0 20.0004Z" fill="#00EAFF"/>
<path d="M53.3334 33.3339H66.6667V40.0005H53.3334V33.3339Z" fill="#00EAFF"/>
<path d="M13.3336 33.3339H26.667V40.0005H13.3336L13.3336 33.3339Z" fill="#00EAFF"/>
<path d="M53.3334 6.66675L66.6667 6.66675V13.3334L53.3334 13.3334V6.66675Z" fill="#00EAFF"/>
<path d="M13.3336 6.66675L26.667 6.66675V13.3334L13.3336 13.3334L13.3336 6.66675Z" fill="#00EAFF"/>
</svg>
