<svg width="33" height="33" viewBox="0 0 33 33" fill="none" xmlns="http://www.w3.org/2000/svg">
<line x1="1" y1="8" x2="1" y2="17" stroke="#00EAFF" stroke-width="2"/>
<line x1="3" y1="17" x2="3" y2="21" stroke="#00EAFF" stroke-width="2"/>
<line x1="4" y1="22" x2="8" y2="22" stroke="#00EAFF" stroke-width="2"/>
<line x1="8" y1="24" x2="17" y2="24" stroke="#00EAFF" stroke-width="2"/>
<line x1="3" y1="4" x2="3" y2="8" stroke="#00EAFF" stroke-width="2"/>
<line x1="24" y1="8" x2="24" y2="17" stroke="#00EAFF" stroke-width="2"/>
<line x1="17" y1="3" x2="21" y2="3" stroke="#00EAFF" stroke-width="2"/>
<line x1="21" y1="22" x2="17" y2="22" stroke="#00EAFF" stroke-width="2"/>
<line x1="21.5" y1="20" x2="21.5" y2="23" stroke="#00EAFF" stroke-width="3"/>
<line x1="23.5" y1="22" x2="23.5" y2="25" stroke="#00EAFF" stroke-width="3"/>
<line x1="25.5" y1="24" x2="25.5" y2="27" stroke="#00EAFF" stroke-width="3"/>
<line x1="31.5" y1="30" x2="31.5" y2="33" stroke="#00EAFF" stroke-width="3"/>
<line x1="8" y1="1" x2="17" y2="1" stroke="#00EAFF" stroke-width="2"/>
<line x1="8" y1="3" x2="4" y2="3" stroke="#00EAFF" stroke-width="2"/>
<line x1="22" y1="4" x2="22" y2="8" stroke="#00EAFF" stroke-width="2"/>
<line x1="22" y1="17" x2="22" y2="21" stroke="#00EAFF" stroke-width="2"/>
<line x1="29.5" y1="28" x2="29.5" y2="31" stroke="#00EAFF" stroke-width="3"/>
<line x1="6" y1="12" x2="6" y2="16" stroke="#00EAFF" stroke-width="2"/>
<line x1="8" y1="16" x2="8" y2="18" stroke="#00EAFF" stroke-width="2"/>
<line x1="13" y1="19" x2="9" y2="19" stroke="#00EAFF" stroke-width="2"/>
<line x1="19" y1="13" x2="19" y2="9" stroke="#00EAFF" stroke-width="2"/>
<line x1="17" y1="9" x2="17" y2="7" stroke="#00EAFF" stroke-width="2"/>
<line x1="27.5" y1="26" x2="27.5" y2="29" stroke="#00EAFF" stroke-width="3"/>
</svg>
